<?xml version="1.0" standalone="no"?><!DOCTYPE svg PUBLIC "-//W3C//DTD SVG 1.1//EN" "http://www.w3.org/Graphics/SVG/1.1/DTD/svg11.dtd"><svg t="1513154803704" class="icon" style="" viewBox="0 0 1024 1024" version="1.1" xmlns="http://www.w3.org/2000/svg" p-id="5768" xmlns:xlink="http://www.w3.org/1999/xlink" width="128" height="128"><defs><style type="text/css"></style></defs><path d="M562.388732 577.622535L650.63662 371.380282 458.726761 470.535211 372.822535 658.569014l189.566197-80.946479z m-48.315493-87.616901c13.971831 0 25.419718 11.357746 25.419719 25.419718S528.135211 540.84507 514.073239 540.84507s-25.419718-11.357746-25.419718-25.419718c0.090141-14.061972 11.447887-25.419718 25.419718-25.419718z" fill="#ff6f00" p-id="5769"></path><path d="M848.676056 371.019718c-18.388732-43.538028-44.709859-82.569014-78.332394-116.191549-33.532394-33.532394-72.653521-59.853521-116.191549-78.332394-45.070423-19.019718-92.84507-28.75493-142.152113-28.75493s-97.171831 9.735211-142.152113 28.75493c-43.538028 18.388732-82.569014 44.709859-116.191549 78.332394-33.622535 33.622535-59.943662 72.653521-78.332394 116.191549-19.019718 45.070423-28.75493 92.84507-28.75493 142.152113C146.569014 562.478873 156.304225 610.343662 175.323944 655.323944c18.388732 43.538028 44.709859 82.569014 78.332394 116.191549 33.532394 33.532394 72.653521 59.853521 116.191549 78.332394 45.070423 19.019718 92.84507 28.75493 142.152113 28.75493s97.171831-9.735211 142.152113-28.75493c43.538028-18.388732 82.569014-44.709859 116.191549-78.332394 33.532394-33.532394 59.853521-72.653521 78.332394-116.191549 19.019718-45.070423 28.75493-92.84507 28.75493-142.152113-0.090141-49.307042-9.735211-97.08169-28.75493-142.152113z m-262.940845 229.859155L312.338028 717.611268l123.042254-269.340845 276.732394-142.963381-126.377465 295.571831z" fill="#ff6f00" p-id="5770"></path></svg>