<?xml version="1.0" standalone="no"?><!DOCTYPE svg PUBLIC "-//W3C//DTD SVG 1.1//EN" "http://www.w3.org/Graphics/SVG/1.1/DTD/svg11.dtd"><svg t="1513153357960" class="icon" style="" viewBox="0 0 1024 1024" version="1.1" xmlns="http://www.w3.org/2000/svg" p-id="9209" xmlns:xlink="http://www.w3.org/1999/xlink" width="128" height="128"><defs><style type="text/css"></style></defs><path d="M659.470423 339.470423c-4.687324-8.56338-15.143662-11.447887-23.346479-6.490141l-116.011268 113.577464c-4.416901 2.614085-7.211268 7.030986-8.112676 11.71831-0.901408-4.777465-3.785915-9.104225-8.112676-11.71831L387.695775 332.890141c-8.112676-4.957746-18.569014-2.073239-23.346479 6.490141-4.687324 8.56338-1.892958 19.470423 6.219718 24.428169L472.247887 463.323944H379.132394c-9.104225 0-16.585915 7.48169-16.585915 16.585915 0 9.104225 7.48169 16.585915 16.585915 16.585916h116.281691v83.019718h-116.281691c-9.104225 0-16.585915 7.48169-16.585915 16.585915 0 9.104225 7.48169 16.585915 16.585915 16.585916h116.281691v99.695775c0 9.104225 7.48169 16.585915 16.585915 16.585915s16.585915-7.48169 16.585915-16.585915V612.777465h116.281691c9.104225 0 16.585915-7.48169 16.585915-16.585916 0-9.104225-7.48169-16.585915-16.585915-16.585915h-116.281691v-83.019719h116.281691c9.104225 0 16.585915-7.48169 16.585915-16.585915 0-9.104225-7.48169-16.585915-16.585915-16.585915H551.661972L653.250704 363.898592c8.202817-4.957746 10.997183-15.864789 6.219719-24.428169zM512 147.830986C310.174648 147.830986 146.659155 311.346479 146.659155 513.171831S310.174648 878.422535 512 878.422535s365.340845-163.515493 365.340845-365.340845S713.735211 147.830986 512 147.830986z m0 697.419718c-183.43662 0-332.078873-148.732394-332.078873-332.078873s148.732394-332.078873 332.078873-332.078873 332.078873 148.732394 332.078873 332.078873-148.732394 332.078873-332.078873 332.078873z" fill="#666666" p-id="9210"></path></svg>