<?xml version="1.0" standalone="no"?><!DOCTYPE svg PUBLIC "-//W3C//DTD SVG 1.1//EN" "http://www.w3.org/Graphics/SVG/1.1/DTD/svg11.dtd"><svg t="1513154849123" class="icon" style="" viewBox="0 0 1024 1024" version="1.1" xmlns="http://www.w3.org/2000/svg" p-id="5934" xmlns:xlink="http://www.w3.org/1999/xlink" width="128" height="128"><defs><style type="text/css"></style></defs><path d="M512 147.830986C310.535211 147.830986 146.659155 311.707042 146.659155 513.171831S310.535211 878.422535 512 878.422535s365.340845-163.876056 365.340845-365.340845S713.374648 147.830986 512 147.830986zM660.461972 702.016901C660.461972 620.169014 593.938028 553.464789 512 553.464789c-81.847887 0-148.552113 66.614085-148.552113 148.552112h-28.033802c0-77.430986 50.388732-142.602817 119.707042-166.309859-35.24507-21.36338-59.132394-59.673239-59.132395-103.752112 0-67.15493 54.625352-121.690141 121.690141-121.690141 67.15493 0 121.690141 54.625352 121.690141 121.690141 0 45.88169-25.690141 85.273239-63.278873 106.095774 65.622535 25.690141 112.405634 89.419718 112.405634 164.056338h-27.943662v-0.090141h-0.090141z" fill="#ff6f00" p-id="5935"></path><path d="M611.335211 431.95493c0-51.650704-41.915493-93.566197-93.566197-93.566198s-93.566197 41.915493-93.566197 93.566198S466.11831 525.521127 517.769014 525.521127c51.650704-0.090141 93.566197-42.005634 93.566197-93.566197z" fill="#ff6f00" p-id="5936"></path></svg>