<?xml version="1.0" standalone="no"?><!DOCTYPE svg PUBLIC "-//W3C//DTD SVG 1.1//EN" "http://www.w3.org/Graphics/SVG/1.1/DTD/svg11.dtd"><svg t="1513154880212" class="icon" style="" viewBox="0 0 1024 1024" version="1.1" xmlns="http://www.w3.org/2000/svg" p-id="6266" xmlns:xlink="http://www.w3.org/1999/xlink" width="128" height="128"><defs><style type="text/css"></style></defs><path d="M512 147.830986C310.174648 147.830986 146.659155 311.346479 146.659155 513.171831S310.174648 878.422535 512 878.422535s365.340845-163.515493 365.340845-365.340845S713.735211 147.830986 512 147.830986z m132.777465 315.492958c9.104225 0 16.585915 7.48169 16.585915 16.585915 0 9.104225-7.48169 16.585915-16.585915 16.585916h-116.28169v83.019718h116.28169c9.104225 0 16.585915 7.48169 16.585915 16.585915 0 9.104225-7.48169 16.585915-16.585915 16.585916h-116.28169v99.695775c0 9.104225-7.48169 16.585915-16.585916 16.585915s-16.585915-7.48169-16.585915-16.585915V612.777465h-116.28169c-9.104225 0-16.585915-7.48169-16.585916-16.585916 0-9.104225 7.48169-16.585915 16.585916-16.585915h116.28169v-83.019719h-116.28169c-9.104225 0-16.585915-7.48169-16.585916-16.585915 0-9.104225 7.48169-16.585915 16.585916-16.585915h93.115492L370.569014 363.988732c-8.112676-4.957746-10.907042-15.864789-6.219718-24.428169 4.687324-8.56338 15.143662-11.447887 23.346479-6.49014l116.191549 113.667605c4.416901 2.614085 7.211268 7.030986 8.112676 11.71831 0.901408-4.777465 3.785915-9.104225 8.112676-11.71831l116.191549-113.667605c8.112676-4.957746 18.569014-2.073239 23.346479 6.49014 4.687324 8.56338 1.983099 19.470423-6.219718 24.428169L551.661972 463.414085h93.115493v-0.090141z" fill="#ff6f00" p-id="6267"></path></svg>